<?xml version="1.0" encoding="UTF-8"?>
<svg id="Layer_2" data-name="Layer 2" xmlns="http://www.w3.org/2000/svg" viewBox="0 0 72 72">
  <defs>
    <style>
      .cls-1, .cls-2, .cls-3, .cls-4 {
        fill: #fff3d2;
      }

      .cls-5 {
        fill: #8ab1ff;
      }

      .cls-2 {
        stroke-width: .4px;
      }

      .cls-2, .cls-3, .cls-4 {
        stroke: #fff3d2;
        stroke-miterlimit: 10;
      }

      .cls-3 {
        stroke-width: .86px;
      }

      .cls-4 {
        stroke-width: .55px;
      }
    </style>
  </defs>
  <g id="Layer_4" data-name="Layer 4">
    <g>
      <circle class="cls-5" cx="36" cy="36" r="35.4"/>
      <path class="cls-5" d="m36,1.21c19.18,0,34.79,15.61,34.79,34.79s-15.61,34.79-34.79,34.79S1.21,55.18,1.21,36,16.82,1.21,36,1.21m0-1.21C16.12,0,0,16.12,0,36s16.12,36,36,36,36-16.12,36-36S55.88,0,36,0h0Z"/>
    </g>
    <rect class="cls-1" x="27" y="44.5" width="30.64" height="8" transform="translate(60.81 -13.15) rotate(57.8)"/>
    <polygon class="cls-3" points="19.23 11.59 26.86 15.69 35.5 15.02 31.4 22.65 32.07 31.29 24.43 27.19 15.8 27.86 19.89 20.23 19.23 11.59"/>
    <polygon class="cls-2" points="42.12 14.38 45.69 16.3 49.73 15.98 47.81 19.56 48.13 23.6 44.55 21.68 40.51 21.99 42.43 18.42 42.12 14.38"/>
    <polygon class="cls-4" points="16.7 37.56 21.55 40.16 27.04 39.74 24.43 44.58 24.86 50.07 20.01 47.47 14.52 47.89 17.12 43.04 16.7 37.56"/>
  </g>
</svg>