<?xml version="1.0" encoding="UTF-8"?>
<svg id="Layer_2" data-name="Layer 2" xmlns="http://www.w3.org/2000/svg" viewBox="0 0 72 72">
  <defs>
    <style>
      .cls-1 {
        fill: #ffd655;
      }
    </style>
  </defs>
  <g id="Vanilla_JS" data-name="Vanilla JS">
    <g>
      <circle class="cls-1" cx="36" cy="36" r="35.4"/>
      <path class="cls-1" d="m36,1.21c19.18,0,34.79,15.61,34.79,34.79s-15.61,34.79-34.79,34.79S1.21,55.18,1.21,36,16.82,1.21,36,1.21m0-1.21C16.12,0,0,16.12,0,36s16.12,36,36,36,36-16.12,36-36S55.88,0,36,0h0Z"/>
    </g>
    <g>
      <path d="m6.78,34.61l17.68-8.97v4.93l-12.69,6.18,12.69,6.36v4.96l-17.68-9.1v-4.36Z"/>
      <path d="m28.88,49.73l10.68-28.97h4.59l-10.65,28.97h-4.62Z"/>
      <path d="m66.24,39.1l-17.68,8.97v-4.96l12.69-6.18-12.69-6.36v-4.92l17.68,9.1v4.36Z"/>
    </g>
  </g>
</svg>