<?xml version="1.0" encoding="UTF-8"?>
<svg id="Layer_2" data-name="Layer 2" xmlns="http://www.w3.org/2000/svg" viewBox="0 0 308.28 99">
  <g id="Layer_6" data-name="Layer 6">
    <path d="m0,39.76L77.62.38v21.63l-55.71,27.14,55.71,27.92v21.76L0,58.89v-19.13Z"/>
    <path d="m308.28,58.89l-77.62,39.95v-21.76l55.71-27.92-55.71-27.14V.38l77.62,39.38v19.13Z"/>
    <g>
      <path d="m84.01,42.5v14h82.48c1.21-5.33,2.71-10.14,5.52-14h-88Z"/>
      <path d="m176.01,4h-92v14h83.66c.87-5.76,3.95-10.74,8.34-14Z"/>
      <path d="m173.96,37.21c-3.8-3.49-6.35-8.41-6.84-13.96h-83.11v14h90s-.03-.03-.05-.04Z"/>
      <path d="m222.48,67.42c-2.44-11.77-3.88-21.65-9.96-28.42-4.76,4.92-11.38,7.99-18.72,7.99-6.67,0-12.74-2.55-17.36-6.7-.21.26-.41.53-.6.79-2.9,3.96-4.44,8.89-5.7,14.35-.4,1.75-.77,3.54-1.15,5.38-.44,2.16-.9,4.37-1.42,6.61-.48,2.08-1.06,4.79-1.6,7.74-.31,1.73-.61,3.55-.85,5.38-.72,5.36-1.03,10.78-.16,14.35.61,2.5,1.79,4.1,3.83,4.1,25.62,0,13.68,0,21.96,0h30.5c6.14,0,3.37-21.21,1.22-31.58Z"/>
      <path d="m172.01,21.28c0,.66.04,1.32.1,1.97.52,5.55,3.19,10.47,7.17,13.96.02.01.03.03.05.04,3.79,3.3,8.74,5.32,14.18,5.32,6.01,0,11.44-2.45,15.34-6.38,3.81-3.84,6.16-9.1,6.16-14.9,0-11.76-9.63-21.28-21.5-21.28-4.67,0-8.99,1.49-12.51,4-4.58,3.26-7.8,8.24-8.7,14-.17,1.07-.28,2.16-.28,3.28Z"/>
      <path d="m165.01,61.75h-81v14h78.09c.51-2.89,1.08-5.53,1.54-7.55.5-2.19.94-4.34,1.37-6.45Z"/>
      <path d="m84.01,81v14h76.84c-.84-3.48-.54-8.77.16-14h-77Z"/>
    </g>
  </g>
</svg>