<?xml version="1.0" encoding="UTF-8"?>
<svg id="Layer_2" data-name="Layer 2" xmlns="http://www.w3.org/2000/svg" viewBox="0 0 321.33 43">
  <g id="Layer_6" data-name="Layer 6">
    <path d="m0,17.27L33.71.17v9.4l-24.2,11.79,24.2,12.13v9.45L0,25.58v-8.31Z"/>
    <path d="m133.9,25.58l-33.71,17.35v-9.45l24.2-12.13-24.2-11.79V.17l33.71,17.1v8.31Z"/>
    <g>
      <path d="m36.49,18.46v6.08h35.83c.53-2.31,1.18-4.4,2.4-6.08h-38.22Z"/>
      <path d="m76.45,1.74h-39.96v6.08h36.34c.38-2.5,1.72-4.67,3.62-6.08Z"/>
      <path d="m75.56,16.16c-1.65-1.52-2.76-3.65-2.97-6.06h-36.1v6.08h39.09s-.01-.01-.02-.02Z"/>
      <path d="m96.63,29.28c-1.06-5.11-1.68-9.41-4.32-12.34-2.07,2.14-4.94,3.47-8.13,3.47-2.9,0-5.53-1.11-7.54-2.91-.09.11-.18.23-.26.34-1.26,1.72-1.93,3.86-2.47,6.23-.17.76-.34,1.54-.5,2.34-.19.94-.39,1.9-.62,2.87-.21.9-.46,2.08-.69,3.36-.14.75-.26,1.54-.37,2.34-.31,2.33-.45,4.68-.07,6.23.26,1.09.78,1.78,1.66,1.78,11.13,0,5.94,0,9.54,0h13.25c2.67,0,1.46-9.21.53-13.72Z"/>
      <path d="m74.71,9.24c0,.29.02.57.04.85.22,2.41,1.38,4.55,3.11,6.06,0,0,.01.01.02.02,1.64,1.43,3.8,2.31,6.16,2.31,2.61,0,4.97-1.06,6.66-2.77,1.65-1.67,2.68-3.95,2.68-6.47,0-5.11-4.18-9.24-9.34-9.24-2.03,0-3.9.65-5.44,1.74-1.99,1.41-3.39,3.58-3.78,6.08-.07.47-.12.94-.12,1.43Z"/>
      <path d="m71.67,26.82h-35.18v6.08h33.92c.22-1.25.47-2.4.67-3.28.22-.95.41-1.89.59-2.8Z"/>
      <path d="m36.49,35.18v6.08h33.38c-.36-1.51-.23-3.81.07-6.08h-33.44Z"/>
    </g>
    <g>
      <path d="m151.53,12.92c-.22,1.55-.25,2.59-.25,4.68v17.03c0,2.12-.65,3.6-2.05,4.64-1.19.86-2.99,1.37-5,1.37-1.73,0-3.2-.36-4.46-1.08-.86-.5-1.33-.94-2.12-1.94l4.1-2.38c.65,1.22,1.44,1.8,2.63,1.8,1.51,0,2.23-.79,2.23-2.48v-16.95c0-2.09-.07-3.31-.29-4.68h5.22Zm.07-7.99v4.57h-5.29v-4.57h5.29Z"/>
      <path d="m152.35,23.28c0-6.7,4.17-10.98,10.73-10.98s10.65,4.25,10.65,10.91-4.21,11.05-10.62,11.05-10.76-4.25-10.76-10.98Zm4.64,0c0,4.43,2.3,7.16,6.05,7.16s6.05-2.7,6.05-7.09c0-4.64-2.2-7.31-6.01-7.31s-6.08,2.74-6.08,7.24Z"/>
      <path d="m175.33,33.58c.18-1.58.25-2.74.25-4.86V9.75c0-1.84-.07-3.1-.25-4.82h5.08c-.18,1.51-.25,2.7-.25,4.86v3.6c0,.58-.04,1.48-.07,2.7,1.87-2.52,4.1-3.64,7.42-3.64,6.05,0,9.61,3.92,9.61,10.62,0,3.53-1.01,6.41-2.95,8.42-1.69,1.73-4,2.59-6.91,2.59-3.31,0-5.36-1.04-7.16-3.56.04.47.04.86.04,1.3v1.76h-4.79Zm11.63-17.35c-2.02,0-3.71.68-4.9,1.98-1.08,1.19-1.76,3.13-1.76,5,0,2.27.94,4.54,2.38,5.69,1.04.83,2.45,1.33,3.78,1.33,3.64,0,5.97-2.81,5.97-7.16s-2.16-6.84-5.47-6.84Z"/>
      <path d="m212.43,31.24c-1.44,1.37-2.34,1.87-3.82,2.27-1.04.29-2.2.43-3.35.43-4.39,0-7.06-2.27-7.06-6.05,0-2.52,1.58-4.79,4.07-5.83,2.34-.97,5-1.33,10.15-1.44v-1.84c0-2.09-1.4-3.17-4.14-3.17-1.44,0-2.92.4-3.74,1.04-.68.5-1.01,1.01-1.44,2.3l-4.61-.83c.83-2.09,1.48-3.02,2.84-4,1.76-1.3,3.78-1.84,6.88-1.84,3.46,0,5.54.61,7.09,2.12,1.22,1.15,1.69,2.52,1.69,4.97v9.68c0,1.91.07,2.88.29,4.5h-4.86v-2.34Zm0-7.49c-6.88.14-9.58,1.33-9.58,4.14,0,1.69,1.26,2.74,3.28,2.74,1.91,0,3.78-.72,5-1.91.86-.86,1.3-1.91,1.3-3.17v-1.8Z"/>
      <path d="m223.61,27.1c.61,2.45,1.94,3.42,4.75,3.42s4.32-1.04,4.32-2.74c0-.72-.36-1.4-.94-1.8-.68-.47-.9-.5-3.78-1.15-2.84-.61-3.96-.97-5.18-1.55-2.05-.97-3.17-2.7-3.17-4.79,0-1.26.4-2.45,1.12-3.35,1.48-1.87,3.92-2.81,7.2-2.81,2.95,0,5.29.72,6.77,2.09.94.9,1.44,1.8,1.94,3.56l-4.75.61c-.4-1.98-1.62-2.84-3.96-2.84s-3.74,1.01-3.74,2.52c0,.68.4,1.3,1.12,1.69.79.4,1.55.61,3.6,1.08,3.67.79,5.15,1.3,6.33,2.2,1.4,1.01,2.09,2.48,2.09,4.46,0,1.48-.68,3.06-1.76,4.07-1.66,1.55-4.18,2.34-7.45,2.34-3.71,0-6.48-1.12-8.03-3.2-.65-.86-.97-1.58-1.4-3.2l4.93-.61Z"/>
      <path d="m254.28,19.83c-.4-1.12-.65-1.62-1.12-2.2-.86-1.08-2.12-1.66-3.71-1.66-3.53,0-5.72,2.77-5.72,7.24s2.23,7.27,5.87,7.27c1.8,0,3.24-.72,4.14-2.02.32-.5.5-.9.72-1.8l4.46.9c-.5,1.44-.86,2.2-1.51,3.06-1.73,2.38-4.5,3.64-7.92,3.64-6.33,0-10.44-4.28-10.44-10.94,0-3.38,1.08-6.3,3.06-8.31,1.76-1.8,4.28-2.74,7.23-2.74,3.53,0,6.34,1.37,8.06,3.89.47.72.76,1.3,1.26,2.63l-4.39,1.04Z"/>
      <path d="m274.24,17.45c-1.51-.43-2.27-.58-3.2-.58-1.8,0-3.17.58-4.18,1.76-.9,1.04-1.26,1.87-1.48,3.6v6.66c0,1.94.07,2.99.25,4.68h-5.15c.18-1.76.25-2.81.25-4.68v-11.3c0-2.2-.04-3.2-.25-4.68h4.9v3.38c1.3-2.56,3.53-3.78,6.77-3.78.86,0,1.73.11,3.35.4l-1.26,4.54Z"/>
      <path d="m282.42,4.92v4.57h-5.29v-4.57h5.29Zm-.04,7.99c-.18,1.33-.25,2.52-.25,4.72v11.23c0,1.98.07,3.2.25,4.71h-5.26c.22-1.62.29-2.88.29-4.68v-11.3c0-1.98-.07-3.2-.29-4.68h5.26Z"/>
      <path d="m289.68,14.68c0,.4,0,.79-.04,1.26,1.98-2.52,4.1-3.53,7.34-3.53,2.88,0,5.18.86,6.84,2.52,1.91,1.94,2.84,4.64,2.84,8.28,0,6.62-3.64,10.62-9.75,10.62-3.17,0-5.54-1.12-7.27-3.46q0,.43.04,1.15c.04.25.04.9.04,1.55v2.74c0,2.12.07,3.28.25,4.79h-5.08c.18-1.69.25-2.92.25-4.75v-18.11c0-2.09-.07-3.28-.25-4.82h4.79v1.76Zm6.44,1.58c-3.56,0-6.26,2.95-6.26,6.8,0,4.1,2.66,6.98,6.41,6.98,3.53,0,5.72-2.66,5.72-6.91s-2.23-6.88-5.87-6.88Z"/>
      <path d="m315.94,7.37c-.14,1.26-.25,2.81-.25,4.43v1.12h1.51c1.69,0,2.48-.04,3.64-.22v4.25c-1.19-.18-1.87-.22-3.53-.22h-1.62v11.16c0,1.76.65,2.41,2.38,2.41.94,0,1.51-.18,2.63-.79l.65,3.82c-1.55.58-2.63.76-4.5.76-4.14,0-5.79-1.48-5.79-5.25v-12.09h-1.37c-1.33,0-2.02.04-3.2.22v-4.25c1.04.18,1.73.22,3.24.22h1.33v-1.12c0-1.55-.11-3.13-.25-4.43h5.15Z"/>
    </g>
  </g>
</svg>