<svg width="17" height="29" viewBox="0 0 17 29" fill="none" xmlns="http://www.w3.org/2000/svg">
<mask id="path-1-inside-1_14_538" fill="white">
<path fill-rule="evenodd" clip-rule="evenodd" d="M16.9768 1C16.9768 0.447715 16.529 0 15.9768 0H1C0.447715 0 0 0.447716 0 1V27.268C0 28.2911 1.35447 28.654 1.86603 27.768L7.62236 17.7977C8.00726 17.131 8.96951 17.131 9.35441 17.7977L15.1107 27.768C15.6223 28.654 16.9768 28.2911 16.9768 27.268V1Z"/>
</mask>
<path d="M7.62236 17.7977L6.75633 17.2977L7.62236 17.7977ZM9.35441 17.7977L8.48838 18.2977L9.35441 17.7977ZM1.86603 27.768L1 27.268L1.86603 27.768ZM1 1H15.9768V-1H1V1ZM1 27.268V1H-1V27.268H1ZM2.73205 28.268L8.48838 18.2977L6.75633 17.2977L1 27.268L2.73205 28.268ZM8.48838 18.2977L14.2447 28.268L15.9768 27.268L10.2204 17.2977L8.48838 18.2977ZM15.9768 1V27.268H17.9768V1H15.9768ZM14.2447 28.268C15.2678 30.04 17.9768 29.3142 17.9768 27.268H15.9768L15.9768 27.268L14.2447 28.268ZM8.48838 18.2977L10.2204 17.2977C9.45063 15.9644 7.52613 15.9644 6.75633 17.2977L8.48838 18.2977ZM-1 27.268C-1 29.3142 1.70895 30.04 2.73205 28.268L1 27.268H-1ZM15.9768 1V1H17.9768C17.9768 -0.10457 17.0813 -1 15.9768 -1V1ZM1 -1C-0.104571 -1 -1 -0.104567 -1 1H1V1V-1Z" fill="black" mask="url(#path-1-inside-1_14_538)"/>
</svg>
