<svg width="93" height="93" viewBox="0 0 93 93" fill="none" xmlns="http://www.w3.org/2000/svg">
<path d="M36.1295 40.4784C36.1295 41.3705 35.9288 43.2885 35.1259 43.8237C34.1223 44.4928 28.1007 44.4928 27.4317 48.5072C26.8964 51.7187 25.6475 55.8669 25.0899 57.5396M25.0899 57.5396C26.205 58.0971 29.4388 59.2122 33.4532 59.2122C37.4676 59.2122 40.9245 58.0971 42.1511 57.5396M25.0899 57.5396H15.054M39.4748 40.4784C39.3633 41.5935 39.5417 43.8237 41.1475 43.8237C42.7532 43.8237 44.0468 44.7158 44.4928 45.1619" stroke="white" stroke-width="2"/>
<path d="M67.5756 57.5396H80.9569" stroke="white" stroke-width="2" stroke-linecap="round"/>
<circle cx="46.5" cy="46.5" r="41.6547" stroke="white" stroke-width="3"/>
<circle cx="46.5" cy="46.5" r="46" stroke="white"/>
<path d="M46.0543 42.6564C46.5619 40.9644 48.1192 39.8058 49.8856 39.8058H67.546C70.2255 39.8058 72.1472 42.3887 71.3773 44.9551L68.3557 55.0271C67.8482 56.719 66.2909 57.8777 64.5244 57.8777H46.864C44.1846 57.8777 42.2628 55.2948 43.0327 52.7283L46.0543 42.6564Z" stroke="white" stroke-width="2"/>
<path d="M45.1655 32.1151C45.1655 36.4038 41.8322 39.813 37.8022 39.813C33.7721 39.813 30.4388 36.4038 30.4388 32.1151C30.4388 27.8264 33.7721 24.4173 37.8022 24.4173C41.8322 24.4173 45.1655 27.8264 45.1655 32.1151Z" stroke="white" stroke-width="2"/>
<line x1="41.3525" y1="53.3542" x2="32.6132" y2="54.9928" stroke="white" stroke-width="2" stroke-linecap="round"/>
<line x1="32.6688" y1="53.6866" x2="32.9456" y2="52.3025" stroke="white" stroke-width="2" stroke-linecap="round"/>
<line x1="74.5288" y1="34.1098" x2="72.9155" y2="37.8741" stroke="white" stroke-linecap="round"/>
<line x1="77.4728" y1="38.161" x2="74.2905" y2="40.2826" stroke="white" stroke-linecap="round"/>
</svg>
