<svg width="212" height="28" viewBox="0 0 212 28" fill="none" xmlns="http://www.w3.org/2000/svg">
<g clip-path="url(#clip0_18_11)">
<path d="M0 11.2456L22.2404 0.110687V6.23162L6.2743 13.9088L22.2404 21.8074V27.9609L0 16.6567V11.2456Z" fill="black"/>
<path d="M88.3416 16.6567L66.1011 27.9544V21.8009L82.0673 13.9023L66.1011 6.22511V0.110687L88.3416 11.2456V16.6567Z" fill="black"/>
<path d="M24.0746 12.0205V15.9795H47.7137C48.0634 14.4754 48.4922 13.1144 49.2971 12.0205H24.0812H24.0746Z" fill="black"/>
<path d="M50.4385 1.13303H24.0746V5.0921H48.0502C48.3009 3.46419 49.1849 2.05117 50.4385 1.13303Z" fill="black"/>
<path d="M49.8513 10.5228C48.7627 9.53303 48.0304 8.14605 47.8918 6.57675H24.0746V10.5358H49.8645C49.8645 10.5358 49.8579 10.5293 49.8513 10.5228Z" fill="black"/>
<path d="M63.7524 19.066C63.0531 15.7386 62.644 12.9386 60.9022 11.0307C59.5365 12.4242 57.643 13.2902 55.5384 13.2902C53.6251 13.2902 51.89 12.5674 50.5638 11.3954C50.5045 11.467 50.4451 11.5451 50.3923 11.6167C49.561 12.7367 49.119 14.1302 48.7627 15.6735C48.6505 16.1684 48.5384 16.6763 48.4328 17.1972C48.3075 17.8093 48.1755 18.4344 48.0238 19.066C47.8852 19.6521 47.7203 20.4205 47.5685 21.254C47.4762 21.7423 47.397 22.2567 47.3244 22.7777C47.1199 24.2949 47.0275 25.8251 47.2783 26.8344C47.4498 27.5442 47.7929 27.9935 48.3734 27.9935C55.7166 27.9935 52.2924 27.9935 54.6675 27.9935H63.4093C65.1709 27.9935 64.3726 21.9963 63.759 19.0595L63.7524 19.066Z" fill="black"/>
<path d="M49.2905 6.01674C49.2905 6.20558 49.3037 6.38791 49.3169 6.57023C49.462 8.13953 50.2274 9.53302 51.3688 10.5163C51.3688 10.5163 51.3753 10.5228 51.3819 10.5293C52.4639 11.4605 53.889 12.0335 55.4461 12.0335C57.168 12.0335 58.725 11.3433 59.84 10.2298C60.9286 9.14233 61.6082 7.65767 61.6082 6.01674C61.6082 2.6893 58.8504 0 55.4461 0C54.1067 0 52.873 0.423256 51.857 1.13302C50.5441 2.05116 49.6204 3.46419 49.3631 5.09209C49.3169 5.39814 49.2839 5.70419 49.2839 6.02326L49.2905 6.01674Z" fill="black"/>
<path d="M47.2848 17.4642H24.0746V21.4232H46.4536C46.5987 20.6093 46.7636 19.8605 46.8956 19.2874C47.0407 18.6688 47.1661 18.0567 47.2848 17.4642Z" fill="black"/>
<path d="M24.0746 22.9079V26.867H46.0973C45.8598 25.8837 45.9455 24.386 46.1435 22.9079H24.0812H24.0746Z" fill="black"/>
<path d="M99.9731 8.41303C99.828 9.42233 99.8082 10.0995 99.8082 11.4605V22.5498C99.8082 23.9302 99.3793 24.894 98.4557 25.5712C97.6706 26.1312 96.483 26.4633 95.1569 26.4633C94.0155 26.4633 93.0457 26.2288 92.2144 25.76C91.647 25.4344 91.3369 25.1479 90.8157 24.4967L93.5207 22.947C93.9495 23.7414 94.4707 24.1191 95.2559 24.1191C96.2521 24.1191 96.7271 23.6047 96.7271 22.5042V11.467C96.7271 10.1061 96.6809 9.31163 96.5358 8.41954H99.9797L99.9731 8.41303ZM100.019 3.21024V6.18605H96.5292V3.21024H100.019Z" fill="black"/>
<path d="M100.514 15.1591C100.514 10.7963 103.265 8.00931 107.593 8.00931C111.921 8.00931 114.62 10.7767 114.62 15.1135C114.62 19.4502 111.842 22.3088 107.613 22.3088C103.384 22.3088 100.514 19.5414 100.514 15.1591ZM103.575 15.1591C103.575 18.0437 105.093 19.8214 107.567 19.8214C110.041 19.8214 111.558 18.0633 111.558 15.2047C111.558 12.1833 110.107 10.4447 107.593 10.4447C105.08 10.4447 103.582 12.2288 103.582 15.1591H103.575Z" fill="black"/>
<path d="M115.675 21.866C115.794 20.8372 115.84 20.0819 115.84 18.7014V6.34884C115.84 5.1507 115.794 4.33024 115.675 3.21024H119.027C118.908 4.19349 118.862 4.96838 118.862 6.37489V8.71907C118.862 9.09675 118.836 9.68279 118.816 10.4772C120.05 8.83628 121.521 8.10698 123.711 8.10698C127.703 8.10698 130.051 10.6595 130.051 15.0223C130.051 17.3209 129.385 19.1963 128.105 20.5051C126.99 21.6316 125.466 22.1916 123.546 22.1916C121.362 22.1916 120.01 21.5144 118.822 19.8735C118.849 20.1795 118.849 20.4335 118.849 20.72V21.866H115.689H115.675ZM123.348 10.5684C122.016 10.5684 120.901 11.0112 120.116 11.8577C119.403 12.6326 118.954 13.8958 118.954 15.1135C118.954 16.5916 119.575 18.0698 120.525 18.8186C121.211 19.3591 122.141 19.6847 123.018 19.6847C125.42 19.6847 126.957 17.8549 126.957 15.0223C126.957 12.1898 125.532 10.5684 123.348 10.5684Z" fill="black"/>
<path d="M140.152 20.3424C139.202 21.2344 138.609 21.56 137.632 21.8205C136.946 22.0093 136.181 22.1005 135.422 22.1005C132.526 22.1005 130.764 20.6224 130.764 18.161C130.764 16.52 131.806 15.0419 133.449 14.3647C134.993 13.7331 136.748 13.4986 140.146 13.427V12.2289C140.146 10.8679 139.222 10.1647 137.414 10.1647C136.464 10.1647 135.488 10.4251 134.947 10.8419C134.498 11.1675 134.281 11.4996 133.997 12.3396L130.955 11.7991C131.503 10.4382 131.932 9.83259 132.829 9.19445C133.99 8.34794 135.323 7.99631 137.368 7.99631C139.651 7.99631 141.023 8.39352 142.046 9.37677C142.851 10.1256 143.161 11.0177 143.161 12.6131V18.9163C143.161 20.16 143.207 20.7917 143.352 21.8465H140.146V20.3228L140.152 20.3424ZM140.152 15.4651C135.613 15.5563 133.832 16.3312 133.832 18.161C133.832 19.2614 134.663 19.9451 135.996 19.9451C137.256 19.9451 138.49 19.4763 139.295 18.7014C139.862 18.1414 140.152 17.4577 140.152 16.6372V15.4651Z" fill="black"/>
<path d="M147.528 17.6465C147.931 19.2419 148.808 19.8735 150.662 19.8735C152.516 19.8735 153.512 19.1963 153.512 18.0893C153.512 17.6205 153.275 17.1777 152.892 16.9172C152.444 16.6112 152.299 16.5916 150.398 16.1684C148.525 15.7712 147.786 15.5367 146.981 15.1591C145.628 14.5274 144.889 13.4009 144.889 12.04C144.889 11.2195 145.153 10.4447 145.628 9.85861C146.605 8.64093 148.215 8.02884 150.379 8.02884C152.325 8.02884 153.869 8.49768 154.845 9.38977C155.465 9.97582 155.795 10.5619 156.125 11.7079L152.991 12.1051C152.727 10.8158 151.922 10.2558 150.379 10.2558C148.835 10.2558 147.911 10.9135 147.911 11.8967C147.911 12.3395 148.175 12.7433 148.65 12.9972C149.171 13.2577 149.673 13.3944 151.025 13.7005C153.446 14.2149 154.423 14.547 155.201 15.133C156.125 15.7907 156.58 16.7479 156.58 18.0372C156.58 19.0009 156.132 20.0298 155.419 20.6874C154.324 21.6967 152.661 22.2112 150.504 22.2112C148.056 22.2112 146.229 21.4819 145.206 20.1274C144.777 19.5674 144.566 19.0986 144.282 18.0437L147.535 17.6465H147.528Z" fill="black"/>
<path d="M167.763 12.9126C167.499 12.1833 167.334 11.8577 167.024 11.48C166.457 10.7768 165.626 10.3991 164.577 10.3991C162.248 10.3991 160.803 12.2028 160.803 15.1135C160.803 18.0242 162.274 19.8475 164.676 19.8475C165.863 19.8475 166.813 19.3786 167.407 18.5321C167.618 18.2065 167.737 17.9461 167.882 17.36L170.825 17.9461C170.495 18.8837 170.257 19.3786 169.828 19.9386C168.687 21.4884 166.859 22.3088 164.603 22.3088C160.427 22.3088 157.715 19.5219 157.715 15.1851C157.715 12.9842 158.428 11.0828 159.734 9.77396C160.895 8.60187 162.558 7.98978 164.504 7.98978C166.833 7.98978 168.687 8.88187 169.822 10.5228C170.132 10.9916 170.323 11.3693 170.653 12.2354L167.757 12.9126H167.763Z" fill="black"/>
<path d="M180.932 11.3628C179.936 11.0828 179.434 10.9851 178.821 10.9851C177.633 10.9851 176.729 11.3628 176.063 12.1312C175.469 12.8084 175.232 13.3488 175.087 14.4754V18.8121C175.087 20.0754 175.133 20.7591 175.252 21.8595H171.854C171.973 20.7135 172.019 20.0298 172.019 18.8121V11.454C172.019 10.0214 171.992 9.37024 171.854 8.40652H175.087V10.6075C175.944 8.94048 177.416 8.14606 179.553 8.14606C180.121 8.14606 180.695 8.21768 181.763 8.40652L180.932 11.3628Z" fill="black"/>
<path d="M186.329 3.20374V6.17955H182.839V3.20374H186.329ZM186.302 8.40653C186.184 9.27257 186.138 10.0475 186.138 11.48V18.7926C186.138 20.0819 186.184 20.8763 186.302 21.8595H182.832C182.977 20.8047 183.023 19.9842 183.023 18.8121V11.454C183.023 10.1647 182.977 9.37025 182.832 8.40653H186.302Z" fill="black"/>
<path d="M191.119 9.55907C191.119 9.81954 191.119 10.0735 191.092 10.3795C192.399 8.73861 193.797 8.08093 195.935 8.08093C197.835 8.08093 199.352 8.64093 200.448 9.72186C201.708 10.9851 202.321 12.7433 202.321 15.1135C202.321 19.4242 199.92 22.0288 195.889 22.0288C193.797 22.0288 192.234 21.2995 191.092 19.7758C191.092 19.9625 191.101 20.2121 191.119 20.5247C191.145 20.6874 191.145 21.1107 191.145 21.534V23.3181C191.145 24.6986 191.191 25.454 191.31 26.4372H187.958C188.077 25.3367 188.123 24.5358 188.123 23.3442V11.5516C188.123 10.1907 188.077 9.41582 187.958 8.41303H191.119V9.55907ZM195.368 10.5879C193.019 10.5879 191.237 12.5088 191.237 15.0158C191.237 17.6856 192.992 19.5609 195.466 19.5609C197.795 19.5609 199.24 17.8288 199.24 15.0614C199.24 12.294 197.769 10.5814 195.368 10.5814V10.5879Z" fill="black"/>
<path d="M208.444 4.79907C208.352 5.61954 208.279 6.62884 208.279 7.68372V8.41303H209.275C210.39 8.41303 210.911 8.38698 211.677 8.26977V11.0372C210.892 10.92 210.443 10.894 209.348 10.894H208.279V18.1609C208.279 19.307 208.708 19.7302 209.849 19.7302C210.469 19.7302 210.845 19.613 211.584 19.2158L212.013 21.7033C210.991 22.0809 210.278 22.1981 209.044 22.1981C206.313 22.1981 205.224 21.2344 205.224 18.7795V10.907H204.32C203.443 10.907 202.988 10.933 202.209 11.0502V8.28279C202.895 8.4 203.351 8.42605 204.347 8.42605H205.224V7.69675C205.224 6.68744 205.152 5.65861 205.059 4.8121H208.457L208.444 4.79907Z" fill="black"/>
</g>
<defs>
<clipPath id="clip0_18_11">
<rect width="212" height="28" fill="white"/>
</clipPath>
</defs>
</svg>
