<svg width="137" height="44" viewBox="0 0 137 44" fill="none" xmlns="http://www.w3.org/2000/svg">
<g clip-path="url(#clip0_21_300)">
<path d="M0 17.671L34.4944 0.168823V9.78216L9.73683 21.8444L34.4944 34.2533V43.9244L0 26.1733V17.671Z" fill="white"/>
<path d="M137 26.1733L102.506 43.9288V34.2577L127.263 21.8488L102.506 9.7866V0.168823L137 17.671V26.1733Z" fill="white"/>
<path d="M37.3341 18.8888V25.111H73.9884C74.5261 22.7421 75.1927 20.6043 76.4414 18.8888H37.3341Z" fill="white"/>
<path d="M78.2191 1.77771H37.3341V7.99993H74.5127C74.8994 5.43993 76.2681 3.2266 78.2191 1.77771Z" fill="white"/>
<path d="M77.308 16.5377C75.6193 14.9866 74.4861 12.7999 74.2683 10.3333H37.3341V16.5555H77.3302C77.3302 16.5555 77.3169 16.5421 77.308 16.5377Z" fill="white"/>
<path d="M98.8704 29.9644C97.786 24.7333 97.1461 20.3421 94.4441 17.3333C92.3288 19.5199 89.3869 20.8844 86.125 20.8844C83.1608 20.8844 80.4633 19.751 78.4101 17.9066C78.3168 18.0221 78.2279 18.1421 78.1435 18.2577C76.8547 20.0177 76.1704 22.2088 75.6104 24.6355C75.4327 25.4133 75.2682 26.2088 75.0994 27.0266C74.9038 27.9866 74.6994 28.9688 74.4683 29.9644C74.255 30.8888 73.9972 32.0933 73.7573 33.4044C73.6195 34.1733 73.4862 34.9821 73.3795 35.7955C73.0596 38.1777 72.9218 40.5866 73.3084 42.1733C73.5795 43.2844 74.1039 43.9955 75.0105 43.9955C86.396 43.9955 81.0899 43.9955 84.7695 43.9955H98.3238C101.052 43.9955 99.8214 34.5688 98.8659 29.9599L98.8704 29.9644Z" fill="white"/>
<path d="M76.4414 9.45773C76.4414 9.75106 76.4592 10.0444 76.4859 10.3333C76.717 12.8 77.9035 14.9866 79.6722 16.5377C79.6811 16.5422 79.6856 16.5511 79.6945 16.5555C81.3787 18.0222 83.5785 18.92 85.9961 18.92C88.6669 18.92 91.08 17.8311 92.8132 16.0844C94.5064 14.3777 95.5507 12.04 95.5507 9.46217C95.5507 4.23551 91.2711 0.00439453 85.9961 0.00439453C83.9207 0.00439453 82.0009 0.666617 80.4366 1.78217C78.4013 3.23106 76.9703 5.44439 76.5703 8.00439C76.4948 8.47995 76.4459 8.96439 76.4459 9.46217L76.4414 9.45773Z" fill="white"/>
<path d="M73.3306 27.4443H37.3341V33.6666H72.0374C72.2641 32.3821 72.5174 31.2088 72.7218 30.311C72.944 29.3377 73.1395 28.3821 73.3306 27.4443Z" fill="white"/>
<path d="M37.3341 36V42.2222H71.4819C71.1086 40.6756 71.242 38.3244 71.553 36H37.3341Z" fill="white"/>
</g>
<defs>
<clipPath id="clip0_21_300">
<rect width="137" height="44" fill="white"/>
</clipPath>
</defs>
</svg>
